<mxfile host="app.diagrams.net" modified="2024-06-15T15:27:23.077Z" agent="Mozilla/5.0 (X11; Linux x86_64; rv:126.0) Gecko/20100101 Firefox/126.0" version="24.5.4" etag="YV3uFZf2Xl_m7osUEuWq" type="github">
  <diagram name="Page-1" id="-wLs8f3Wrezz7mhkAqFc">
    <mxGraphModel>
      <root>
        <mxCell id="0" />
        <mxCell id="1" parent="0" />
      </root>
    </mxGraphModel>
  </diagram>
</mxfile>
